<svg xmlns="http://www.w3.org/2000/svg" width="16" height="16" viewBox="0 0 16 16">
  <g id="Group_33854" data-name="Group 33854" transform="translate(-338 -1396)">
    <g id="Rectangle_4107" data-name="Rectangle 4107" transform="translate(338 1396)" fill="#c79971" stroke="#707070" stroke-width="1" opacity="0">
      <rect width="16" height="16" rx="3" stroke="none"/>
      <rect x="0.5" y="0.5" width="15" height="15" rx="2.5" fill="none"/>
    </g>
    <g id="menu-vertical_curved" transform="translate(345.333 1398.682)">
      <path id="Path_35251" data-name="Path 35251" d="M13.7,5.349A1.349,1.349,0,1,0,12.349,6.7,1.349,1.349,0,0,0,13.7,5.349Z" transform="translate(-11.682 -4.682)" fill="#6b6d6f"/>
      <path id="Path_35254" data-name="Path 35254" d="M13.7,5.349A1.349,1.349,0,1,0,12.349,6.7,1.349,1.349,0,0,0,13.7,5.349Z" transform="translate(-11.682 0.318)" fill="#6b6d6f"/>
      <path id="Path_35255" data-name="Path 35255" d="M13.7,5.349A1.349,1.349,0,1,0,12.349,6.7,1.349,1.349,0,0,0,13.7,5.349Z" transform="translate(-11.682 5.318)" fill="#6b6d6f"/>
    </g>
  </g>
</svg>
