<svg xmlns="http://www.w3.org/2000/svg" width="200" height="200" viewBox="0 0 200 200">
  <g id="Master_Log" data-name="Master Log" transform="translate(-1184 1056)">
    <g id="Rectangle_4116" data-name="Rectangle 4116" transform="translate(1184 -1056)" fill="#fff" stroke="#707070" stroke-width="1" opacity="0">
      <rect width="200" height="200" stroke="none"/>
      <rect x="0.5" y="0.5" width="199" height="199" fill="none"/>
    </g>
    <g id="Group_33875" data-name="Group 33875" transform="translate(1192.333 -1047.667)">
      <path id="Path_35289" data-name="Path 35289" d="M190.027,252.481c-5.49.127-5.818.229-7.39-4.873-1.634-5.3-4.219-8.923-10.086-9.857-2.843-.453-5.431-2.147-7.941-3.659a4.338,4.338,0,0,0-4.343-.277c-2.845,1.272-5.74,2.434-8.572,3.734a2.1,2.1,0,0,1-2.677-.459c-2-1.884-3.956-3.8-5.794-5.852a1.755,1.755,0,0,1-.363-2.206c1.336-2.962,2.543-5.981,3.853-8.954a4.218,4.218,0,0,0-.266-4.177,47.889,47.889,0,0,1-5.321-12.851,4.062,4.062,0,0,0-2.648-3c-3.024-1.177-6.022-2.421-9.054-3.575a1.825,1.825,0,0,1-1.391-1.966q.076-4.122,0-8.246a1.9,1.9,0,0,1,1.538-2.05c2.926-1.074,5.792-2.307,8.7-3.441a4.382,4.382,0,0,0,2.9-3.25,46.181,46.181,0,0,1,5.259-12.67,4.338,4.338,0,0,0,.217-4.353c-1.3-2.908-2.47-5.874-3.778-8.777a1.777,1.777,0,0,1,.333-2.217c1.83-2.056,3.782-3.979,5.794-5.854a2.119,2.119,0,0,1,2.7-.457c2.827,1.311,5.737,2.443,8.577,3.729a4.315,4.315,0,0,0,4.339-.274,45.157,45.157,0,0,1,12.468-5.189,4.5,4.5,0,0,0,3.383-3.016c1.106-2.919,2.347-5.787,3.424-8.716a1.915,1.915,0,0,1,2.1-1.476c2.615.049,5.233.061,7.847-.015a2.129,2.129,0,0,1,2.382,1.634c1.068,2.932,2.312,5.8,3.426,8.715a4.192,4.192,0,0,0,3.1,2.788,46.943,46.943,0,0,1,12.652,5.26,4.281,4.281,0,0,0,4.337.281c2.9-1.313,5.868-2.466,8.761-3.786a1.873,1.873,0,0,1,2.368.392c2.046,1.839,3.962,3.8,5.83,5.815a1.973,1.973,0,0,1,.442,2.514c-1.328,2.894-2.5,5.861-3.792,8.771a4.234,4.234,0,0,0,.237,4.182,48.008,48.008,0,0,1,5.3,12.859,4.03,4.03,0,0,0,2.673,2.986c2.972,1.131,5.887,2.416,8.868,3.522a2.048,2.048,0,0,1,1.551,2.054,62.331,62.331,0,0,1,.008,8.239,2.17,2.17,0,0,1-1.71,2.146c-2.923,1.081-5.789,2.316-8.7,3.43a4.048,4.048,0,0,0-2.68,2.982,48.527,48.527,0,0,1-5.392,13.028,4.092,4.092,0,0,0-.162,4.013c1.315,2.971,2.534,5.986,3.855,8.955a1.761,1.761,0,0,1-.355,2.2c-1.942,2.125-3.974,4.15-6.087,6.106a1.743,1.743,0,0,1-2.2.287c-2.967-1.314-5.97-2.544-8.94-3.854a4.075,4.075,0,0,0-4,.219,47.317,47.317,0,0,1-12.831,5.323,4.275,4.275,0,0,0-3.188,2.962c-1.005,2.751-2.26,5.412-3.217,8.179-.491,1.421-1.195,2.125-2.7,2.053-1.209-.058-2.423-.012-3.634-.012m-42.49-62.092c-.048,23.249,18.95,42.464,42.076,42.556a42.586,42.586,0,0,0,42.9-42.9c.03-23.019-19.084-42.152-42.2-42.244a42.51,42.51,0,0,0-42.78,42.589" transform="translate(-68.93 -69.186)" fill="#166568"/>
      <path id="Path_35290" data-name="Path 35290" d="M72.929,52.138c-13.955-.167-27.756-1.531-41.2-5.514a45.74,45.74,0,0,1-13.516-6.107C11.065,35.5,11,29.629,18.139,24.612c6.058-4.255,13.036-6.295,20.143-7.9a169.828,169.828,0,0,1,45.449-3.6c11.888.547,23.626,2,35.042,5.505a45.183,45.183,0,0,1,12.645,5.744c7.505,5.185,7.511,11.245-.068,16.375-5.681,3.847-12.145,5.814-18.73,7.392-13.047,3.126-26.316,4.11-39.691,4.006" transform="translate(-12.701 -12.895)" fill="#166568"/>
      <path id="Path_35291" data-name="Path 35291" d="M136.924,74.161c0,6.933-.022,13.514.023,20.093.007,1.049-.468,1.074-1.272,1.065-2.3-.027-4.594-.025-6.888.058a7.242,7.242,0,0,0-7.028,4.946c-.922,2.374-1.964,4.7-2.828,7.1a2.748,2.748,0,0,1-2.036,1.981,45.365,45.365,0,0,0-10.02,4.167,2.3,2.3,0,0,1-2.293.119q-3.74-1.686-7.529-3.261a7.034,7.034,0,0,0-7.835,1.209,54.033,54.033,0,0,0-8.487,8.809,2.235,2.235,0,0,1-2.117.894,166.128,166.128,0,0,1-32.955-2.425c-8.3-1.478-16.431-3.51-23.963-7.452a36.51,36.51,0,0,1-4.057-2.51c-3.33-2.344-5.152-5.3-4.987-9.679.288-7.661.08-15.341.08-23.013V74.288C25.2,82.729,39.239,85.511,53.578,87.33a174.273,174.273,0,0,0,40.479.28c11.493-1.222,22.8-3.363,33.491-8.008a45.04,45.04,0,0,0,9.376-5.44M22.837,92.584A3.256,3.256,0,0,0,19.5,94.753a2.86,2.86,0,0,0,1.02,3.582,12.392,12.392,0,0,0,5.059,2.144,2.922,2.922,0,0,0,3.17-1.675,2.875,2.875,0,0,0-.5-3.7,13.081,13.081,0,0,0-5.416-2.516M39.514,98c-2.169-.024-3.549,1.016-3.794,2.579a3,3,0,0,0,2.034,3.655,17.147,17.147,0,0,0,4.266.952,3.011,3.011,0,0,0,3.257-2.4A3.069,3.069,0,0,0,43.475,99a35.671,35.671,0,0,0-3.961-1" transform="translate(-12.615 -42.795)" fill="#166568"/>
      <path id="Path_35292" data-name="Path 35292" d="M12.707,227.385c11.324,8.286,24.211,11.075,37.4,12.959a114.4,114.4,0,0,0,13.523,1.2c1.211.028,1.626.4,1.618,1.658-.028,3.907,1.887,6.463,5.583,7.774,2.455.871,5.11,1.54,7.2,2.988,2.189,1.518,1.8,4.725,3.092,6.956a11.844,11.844,0,0,0,.62,1.391c2.5,3.2,1.809,6.246.125,9.626-.981,1.97-1.872,2.857-4.124,2.862-15.82.037-31.457-1.254-46.646-6.04a49.012,49.012,0,0,1-12.783-5.9c-3.783-2.544-5.932-5.7-5.705-10.674.371-8.161.1-16.35.1-24.807" transform="translate(-12.59 -117.576)" fill="#166568"/>
      <path id="Path_35293" data-name="Path 35293" d="M12.788,151.025c9.707,6.858,20.5,9.719,31.563,11.757a167.421,167.421,0,0,0,35.042,2.591c.9-.025,1.481.173,1.68,1.1a2.127,2.127,0,0,0,.171.341c.9,2.109,2.338,4.17,2.535,6.343.192,2.116-1.8,3.943-2.52,6.04a18.854,18.854,0,0,0-1.281,3.383c-.391,2.97-2.249,4.272-4.869,5.027-1.46.421-2.828,1.151-4.268,1.653-3.529,1.229-5.436,3.652-5.523,7.417-.02.867-.192,1.207-1.181,1.142-13.475-.885-26.731-2.82-39.274-8.163a29.068,29.068,0,0,1-9.488-5.971,8.4,8.4,0,0,1-2.619-6.33c.084-8.182.031-16.366.031-24.549Z" transform="translate(-12.671 -80.309)" fill="#166568"/>
      <path id="Path_35295" data-name="Path 35295" d="M29.14,110.148a13.071,13.071,0,0,1,5.415,2.516,2.874,2.874,0,0,1,.5,3.7,2.921,2.921,0,0,1-3.171,1.674,12.379,12.379,0,0,1-5.058-2.143,2.859,2.859,0,0,1-1.02-3.581,3.256,3.256,0,0,1,3.335-2.169" transform="translate(-18.919 -60.359)" fill="#166568"/>
      <path id="Path_35296" data-name="Path 35296" d="M61.458,120.728a35.66,35.66,0,0,1,3.961,1,3.069,3.069,0,0,1,1.8,3.791,3.011,3.011,0,0,1-3.257,2.4,17.147,17.147,0,0,1-4.266-.952,3,3,0,0,1-2.033-3.655c.244-1.563,1.624-2.6,3.794-2.579" transform="translate(-34.559 -65.521)" fill="#166568"/>
      <path id="Path_35297" data-name="Path 35297" d="M216.085,251.23c-18.7,1.179-35.974-14.383-37.156-33.475-1.235-19.923,13.695-37.182,33.27-38.462a36.025,36.025,0,1,1,3.887,71.937m-27.4-36.07A26.13,26.13,0,1,0,214.7,189.05a26.12,26.12,0,0,0-26.017,26.109" transform="translate(-93.736 -94.064)" fill="#166568"/>
      <path id="Path_35299" data-name="Path 35299" d="M210.868,230.759a19.588,19.588,0,1,1,19.393,19.774,19.515,19.515,0,0,1-19.393-19.774" transform="translate(-109.358 -109.715)" fill="#166568"/>
    </g>
  </g>
</svg>
