<?xml version="1.0" encoding="UTF-8" standalone="no"?><!DOCTYPE svg PUBLIC "-//W3C//DTD SVG 1.1//EN" "http://www.w3.org/Graphics/SVG/1.1/DTD/svg11.dtd"><svg width="100%" height="100%" viewBox="0 0 331 334" version="1.1" xmlns="http://www.w3.org/2000/svg" xmlns:xlink="http://www.w3.org/1999/xlink" xml:space="preserve" xmlns:serif="http://www.serif.com/" style="fill-rule:evenodd;clip-rule:evenodd;stroke-linecap:round;stroke-linejoin:round;stroke-miterlimit:1.5;"><path d="M328.226,37.074l-0,68.081c-0,19.092 -72.981,34.592 -162.872,34.592c-89.892,0 -162.872,-15.5 -162.872,-34.592l-0,-68.081c-0,19.092 72.98,34.592 162.872,34.592c89.891,0 162.872,-15.5 162.872,-34.592Z" style="stroke:#fff;stroke-width:4.96px;"/><path d="M328.226,100.727l-0,68.081c-0,19.092 -72.981,34.592 -162.872,34.592c-89.892,0 -162.872,-15.5 -162.872,-34.592l-0,-68.081c-0,19.092 72.98,34.592 162.872,34.592c89.891,-0 162.872,-15.5 162.872,-34.592Z" style="stroke:#fff;stroke-width:4.96px;"/><path d="M328.226,164.379l-0,68.082c-0,19.092 -72.981,34.592 -162.872,34.592c-89.892,-0 -162.872,-15.5 -162.872,-34.592l-0,-68.082c-0,19.092 72.98,34.593 162.872,34.593c89.891,-0 162.872,-15.501 162.872,-34.593Z" style="stroke:#fff;stroke-width:4.96px;"/><path d="M328.226,228.032l-0,68.081c-0,19.092 -72.981,34.593 -162.872,34.593c-89.892,-0 -162.872,-15.501 -162.872,-34.593l-0,-68.081c-0,19.092 72.98,34.592 162.872,34.592c89.891,0 162.872,-15.5 162.872,-34.592Z" style="stroke:#fff;stroke-width:4.96px;"/><ellipse cx="165.354" cy="37.074" rx="162.872" ry="34.592" style="stroke:#fff;stroke-width:4.96px;"/><path d="M136.993,60.554c-44.522,-1.968 -80.662,-6.171 -95.436,-15.142m163.459,-31.707c52.934,3.415 87.348,10.317 87.348,22.669c-0,4.729 -5.653,9.179 -15.6,13.063" style="stroke:#fff;stroke-width:4.96px;"/><ellipse cx="165.354" cy="34.376" rx="38.25" ry="8.124" style="stroke:#fff;stroke-width:4.96px;"/><circle cx="232.205" cy="102.496" r="14.075" style="stroke:#fff;stroke-width:4.96px;"/><circle cx="232.205" cy="165.076" r="14.075" style="stroke:#fff;stroke-width:4.96px;"/><circle cx="232.205" cy="227.655" r="14.075" style="stroke:#fff;stroke-width:4.96px;"/><circle cx="232.205" cy="290.235" r="14.075" style="stroke:#fff;stroke-width:4.96px;"/><circle cx="276.79" cy="94.939" r="14.075" style="stroke:#fff;stroke-width:4.96px;"/><circle cx="276.79" cy="157.519" r="14.075" style="stroke:#fff;stroke-width:4.96px;"/><circle cx="276.79" cy="220.099" r="14.075" style="stroke:#fff;stroke-width:4.96px;"/><circle cx="276.79" cy="282.678" r="14.075" style="stroke:#fff;stroke-width:4.96px;"/></svg>