<svg xmlns="http://www.w3.org/2000/svg" width="200" height="200" viewBox="0 0 200 200">
  <g id="CMEF" transform="translate(-1218 1056)">
    <g id="Rectangle_4117" data-name="Rectangle 4117" transform="translate(1218 -1056)" fill="#fff" stroke="#707070" stroke-width="1" opacity="0">
      <rect width="200" height="200" stroke="none"/>
      <rect x="0.5" y="0.5" width="199" height="199" fill="none"/>
    </g>
    <g id="noun-meter-3574499" transform="translate(1226.333 -1006)">
      <path id="Path_35300" data-name="Path 35300" d="M180.969,67.5H4.364A3.35,3.35,0,0,0,1,70.864V83.946A3.35,3.35,0,0,0,4.364,87.31H180.969a3.35,3.35,0,0,0,3.364-3.364V70.864A3.613,3.613,0,0,0,180.969,67.5ZM79.491,80.582a3.35,3.35,0,0,1-3.364-3.364,3.2,3.2,0,0,1,3.364-3.177A3.35,3.35,0,0,1,82.855,77.4,3.2,3.2,0,0,1,79.491,80.582Zm13.082,0a3.35,3.35,0,0,1-3.364-3.364,3.2,3.2,0,0,1,3.364-3.177A3.35,3.35,0,0,1,95.937,77.4,3.2,3.2,0,0,1,92.573,80.582Zm13.082,0a3.35,3.35,0,0,1-3.364-3.364,3.2,3.2,0,0,1,3.364-3.177,3.35,3.35,0,0,1,3.364,3.364A3.2,3.2,0,0,1,105.655,80.582Z" transform="translate(-1 17.532)" fill="#166568"/>
      <path id="Path_35301" data-name="Path 35301" d="M60.514,100.491a26.37,26.37,0,0,1,5.233-12.708l-14.39-14.39,4.672-4.672,14.39,14.39a26.078,26.078,0,0,1,42.049,17.38h52.514A78.491,78.491,0,1,0,8,100.491Zm82.042-23.547,2.429,5.98-9.157,3.738L133.4,80.868Zm-14.39-19.623,4.672,4.672-7.1,7.1-4.485-4.485ZM107.235,44.987l5.98,2.43-3.738,9.157-5.98-2.429ZM83.314,41.623h6.541v9.9H83.314ZM65.747,45.174l3.738,9.157L63.691,56.76l-3.925-8.97ZM44.816,57.508l6.915,6.915-4.485,4.672L40.331,62.18ZM30.426,77.131l8.97,3.738-2.429,5.98L27.81,83.111Z" transform="translate(5.082 -22)" fill="#166568"/>
      <path id="Path_35302" data-name="Path 35302" d="M39.7,67.736H51.1L43.064,59.7A16.153,16.153,0,0,0,39.7,67.736Z" transform="translate(32.624 10.755)" fill="#166568"/>
      <path id="Path_35303" data-name="Path 35303" d="M74.549,71.608A19.642,19.642,0,0,0,51.936,55.536,21.683,21.683,0,0,0,43.9,58.9L56.608,71.608Z" transform="translate(36.273 6.883)" fill="#166568"/>
    </g>
  </g>
</svg>
