<svg xmlns="http://www.w3.org/2000/svg" width="11.722" height="14.918" viewBox="0 0 11.722 14.918">
  <g id="document" transform="translate(-30.4 -12.16)">
    <path id="Path_35211" data-name="Path 35211" d="M41.988,18.554H37.326a1.6,1.6,0,0,1-1.6-1.6V12.293a.133.133,0,0,0-.133-.133H32.531A2.131,2.131,0,0,0,30.4,14.291V24.947a2.131,2.131,0,0,0,2.131,2.131H39.99a2.131,2.131,0,0,0,2.131-2.131v-6.26A.133.133,0,0,0,41.988,18.554Z" fill="#fff"/>
    <path id="Path_35212" data-name="Path 35212" d="M108.262,21.6l-4.789-4.789a.067.067,0,0,0-.114.047v4.323a.533.533,0,0,0,.533.533h4.323a.067.067,0,0,0,.047-.114Z" transform="translate(-66.566 -4.229)" fill="#fff"/>
  </g>
</svg>
