<svg id="Group_34023" data-name="Group 34023" xmlns="http://www.w3.org/2000/svg" width="24" height="24" viewBox="0 0 24 24">
  <g id="Rectangle_4137" data-name="Rectangle 4137" fill="#fff" stroke="#707070" stroke-width="1" opacity="0">
    <rect width="24" height="24" stroke="none"/>
    <rect x="0.5" y="0.5" width="23" height="23" fill="none"/>
  </g>
  <g id="analytics" transform="translate(-21 -21)">
    <g id="Group_34022" data-name="Group 34022" transform="translate(24 24)">
      <path id="Path_35325" data-name="Path 35325" d="M24,27a3,3,0,0,1,3-3H39a3,3,0,0,1,3,3V39a3,3,0,0,1-3,3H27a3,3,0,0,1-3-3Zm10,2a1,1,0,0,0-2,0v8a1,1,0,1,0,2,0Zm-4,3a1,1,0,0,0-2,0v5a1,1,0,1,0,2,0Zm8,3a1,1,0,0,0-2,0v2a1,1,0,1,0,2,0Z" transform="translate(-24 -24)" fill="#159dd9" fill-rule="evenodd"/>
    </g>
  </g>
</svg>
