<svg xmlns="http://www.w3.org/2000/svg" width="13.403" height="13.403" viewBox="0 0 13.403 13.403">
  <g id="tag_duotone" transform="translate(-1.276 -1.15)">
    <path id="Path_35236" data-name="Path 35236" d="M3.731,12.1C2.25,10.617,1.51,9.877,1.334,8.99a2.982,2.982,0,0,1,0-1.163c.176-.887.917-1.628,2.4-3.108l1.75-1.75A6.391,6.391,0,0,1,7.525,1.309a6.391,6.391,0,0,1,2.631-.071l1.569.121c1.216.094,1.824.14,2.214.53s.437,1,.53,2.214l.121,1.569A6.392,6.392,0,0,1,14.52,8.3a6.391,6.391,0,0,1-1.658,2.044l-1.75,1.75C9.63,13.579,8.89,14.319,8,14.5a2.981,2.981,0,0,1-1.163,0C5.952,14.319,5.212,13.579,3.731,12.1Z" transform="translate(0 0)" fill="transparent"/>
    <path id="Path_35237" data-name="Path 35237" d="M2.91,9.615c.348.427.855.936,1.612,1.693s1.266,1.264,1.693,1.612a1.984,1.984,0,0,0,.843.48,1.865,1.865,0,0,0,.727,0,1.984,1.984,0,0,0,.843-.48c.427-.348.936-.855,1.693-1.612l1.75-1.75c1.027-1.027,1.278-1.312,1.4-1.641a5.646,5.646,0,0,0,.005-2.157l-.121-1.569a11.857,11.857,0,0,0-.135-1.279A1,1,0,0,0,13.16,2.7a.13.13,0,0,0-.01-.019h0l-.019-.01a1,1,0,0,0-.211-.061,11.844,11.844,0,0,0-1.279-.135L10.07,2.353a5.645,5.645,0,0,0-2.157.005c-.329.122-.614.373-1.641,1.4l-1.75,1.75C3.765,6.265,3.258,6.774,2.91,7.2a1.983,1.983,0,0,0-.48.843,1.864,1.864,0,0,0,0,.727A1.983,1.983,0,0,0,2.91,9.615ZM1.334,8.99c.176.887.917,1.628,2.4,3.108s2.221,2.221,3.108,2.4A2.981,2.981,0,0,0,8,14.5c.887-.176,1.628-.917,3.108-2.4l1.75-1.75A6.391,6.391,0,0,0,14.52,8.3a6.392,6.392,0,0,0,.071-2.631L14.47,4.1c-.094-1.216-.14-1.824-.53-2.214s-1-.437-2.214-.53l-1.569-.121a6.391,6.391,0,0,0-2.631.071A6.391,6.391,0,0,0,5.482,2.967l-1.75,1.75C2.25,6.2,1.51,6.939,1.334,7.826A2.982,2.982,0,0,0,1.334,8.99Z" transform="translate(0 0)" fill="#212121" fill-rule="evenodd"/>
    <path id="Path_35238" data-name="Path 35238" d="M16.389,7.872a1.482,1.482,0,1,1,0-2.1A1.482,1.482,0,0,1,16.389,7.872Z" transform="translate(-4.752 -1.583)" fill="#212121"/>
  </g>
</svg>
