<svg xmlns="http://www.w3.org/2000/svg" width="11.134" height="14.845" viewBox="0 0 11.134 14.845">
  <g id="__TEMP__SVG__" transform="translate(-3)">
    <g id="Group_33848" data-name="Group 33848" transform="translate(3 0)">
      <path id="Path_35247" data-name="Path 35247" d="M7.87,15.136a4.779,4.779,0,0,1,.426-.221q-.2.291-.418.562a1.887,1.887,0,0,1-.589.531l-.032.011a.262.262,0,0,1-.024-.041.3.3,0,0,1,.037-.334A1.8,1.8,0,0,1,7.87,15.136Zm2.278-1.528c-.11.023-.22.046-.33.072q.245-.481.464-.974.22.408.473.8C10.553,13.532,10.35,13.568,10.148,13.608Zm2.343.871a3.6,3.6,0,0,1-.4-.38,3.724,3.724,0,0,1,.568.05.852.852,0,0,1,.481.194.088.088,0,0,1,.024.059.4.4,0,0,1-.056.186.285.285,0,0,1-.087.115.1.1,0,0,1-.064.014A.927.927,0,0,1,12.491,14.48Zm-2.064-4.4a6.188,6.188,0,0,1-.186.769q-.047-.159-.083-.321a1.919,1.919,0,0,1-.043-.763A.316.316,0,0,1,10.3,9.5a.48.48,0,0,1,.135-.037.552.552,0,0,1,.03.184,2.185,2.185,0,0,1-.035.431Z" transform="translate(-4.601 -3.609)" fill="#fff"/>
      <path id="Path_35248" data-name="Path 35248" d="M4.856,0H9.767a.928.928,0,0,1,.656.272l3.44,3.44a.928.928,0,0,1,.272.656v8.622a1.856,1.856,0,0,1-1.856,1.856H4.856A1.856,1.856,0,0,1,3,12.989V1.856A1.856,1.856,0,0,1,4.856,0Zm5.1,1.392V3.247a.928.928,0,0,0,.928.928h1.856Zm-4.95,11.29a.752.752,0,0,0,.406.389.735.735,0,0,0,.538-.028,2.482,2.482,0,0,0,.859-.729,10.482,10.482,0,0,0,.947-1.4,10.81,10.81,0,0,1,1.853-.377,5.3,5.3,0,0,0,.844.881,1.584,1.584,0,0,0,.867.387.794.794,0,0,0,.473-.128.957.957,0,0,0,.328-.386,1.087,1.087,0,0,0,.128-.522.783.783,0,0,0-.186-.481,1.48,1.48,0,0,0-.891-.431,5.344,5.344,0,0,0-1.239-.046,10.163,10.163,0,0,1-.909-1.564A9.063,9.063,0,0,0,9.511,6.58a2.9,2.9,0,0,0,.045-.57,1.149,1.149,0,0,0-.118-.5A.649.649,0,0,0,9,5.173a.964.964,0,0,0-.558.071,1,1,0,0,0-.6.764,2.578,2.578,0,0,0,.043,1.054,6.717,6.717,0,0,0,.4,1.2,18.275,18.275,0,0,1-.985,2.066,7.109,7.109,0,0,0-1.375.6,2.489,2.489,0,0,0-.832.73A1,1,0,0,0,5.009,12.681Z" transform="translate(-3 0)" fill="#fff" fill-rule="evenodd"/>
    </g>
  </g>
</svg>
