<svg xmlns="http://www.w3.org/2000/svg" width="14" height="12.579" viewBox="0 0 14 12.579">
  <g id="attach" transform="translate(0 -0.02)">
    <path id="Path_35239" data-name="Path 35239" d="M14,3.706a4.133,4.133,0,0,1-.333,1.629,4.3,4.3,0,0,1-.925,1.377L7.107,12.3l-.78-.767,5.635-5.585a3,3,0,0,0,.931-2.239A2.516,2.516,0,0,0,10.3,1.114a3.171,3.171,0,0,0-2.264.943l-6.2,6.151a2.31,2.31,0,0,0-.742,1.673,1.581,1.581,0,0,0,.465,1.176,1.614,1.614,0,0,0,1.182.459,2.324,2.324,0,0,0,1.686-.742L9.17,6.1a1.922,1.922,0,0,0,.667-1.22.49.49,0,0,0-.2-.415.774.774,0,0,0-.478-.151,1.459,1.459,0,0,0-1.082.5L3.8,9.039l-.767-.767L7.3,4.045a2.574,2.574,0,0,1,1.862-.83,1.839,1.839,0,0,1,1.258.465,1.507,1.507,0,0,1,.528,1.182,2.935,2.935,0,0,1-.994,2L5.208,11.542A3.379,3.379,0,0,1,2.742,12.6a2.678,2.678,0,0,1-1.956-.774A2.614,2.614,0,0,1,0,9.882a3.351,3.351,0,0,1,1.057-2.44l6.2-6.151A4.235,4.235,0,0,1,10.3.02,3.621,3.621,0,0,1,14,3.706Z"/>
  </g>
</svg>
