<svg xmlns="http://www.w3.org/2000/svg" width="23.675" height="21.66" viewBox="0 0 23.675 21.66">
  <g id="Group_33819" data-name="Group 33819" transform="translate(-9.5 -12.9)">
    <path id="Path_35231" data-name="Path 35231" d="M31.189,16.841H25.964v-2.8a.586.586,0,0,0-.584-.584h-1.2a.574.574,0,0,0-.555-.555H19.1a.554.554,0,0,0-.555.555H17.265a.586.586,0,0,0-.584.584v2.8h-5.2A1.987,1.987,0,0,0,9.5,18.826v2.686a.525.525,0,0,1,.438.2c.058.088,1.839,2.1,9.312,2.1h.029a.794.794,0,0,1,.788-.73h2.51a.794.794,0,0,1,.788.73H23.4c7.473,0,9.254-2.014,9.312-2.1a.564.564,0,0,1,.438-.2V18.826A1.962,1.962,0,0,0,31.189,16.841ZM17.849,14.622h.7a.574.574,0,0,0,.555.555h4.5a.554.554,0,0,0,.555-.555h.613v2.219H17.849Z" transform="translate(0)" fill="#fff"/>
    <path id="Path_35232" data-name="Path 35232" d="M23.366,49.1a.794.794,0,0,1-.788.73h-2.51a.794.794,0,0,1-.788-.73H19.25c-6.189,0-8.787-1.343-9.75-2.1v9.721a1.987,1.987,0,0,0,1.985,1.985h19.7a1.987,1.987,0,0,0,1.985-1.985V47c-.993.759-3.591,2.131-9.808,2.1Z" transform="translate(0 -24.146)" fill="#fff"/>
  </g>
</svg>
