<svg id="noun-horse-1914426" xmlns="http://www.w3.org/2000/svg" width="9.145" height="14.043" viewBox="0 0 9.145 14.043">
  <path id="Path_35240" data-name="Path 35240" d="M22.077,16.637a3.488,3.488,0,0,0-1.2-1.35c-.152-.1-.21-.218-.171-.345.026-.086.1-.188.314-.188h.111a1.35,1.35,0,0,0,1.046-.39,1.263,1.263,0,0,0,.127-1.1c-.084-.357-.186-.715-.294-1.095a8.43,8.43,0,0,1-.474-3.833,3.98,3.98,0,0,1,1.283-2.254A.869.869,0,0,0,22.4,5.5a.227.227,0,0,1,.072-.408A3.012,3.012,0,0,1,23.191,5a1.756,1.756,0,0,1,1.507.717,5.186,5.186,0,0,1,2.237.719,1.587,1.587,0,0,1,.613.717.426.426,0,0,0,.088.147c1.328.591,2.064,1.215,2.188,1.856a.9.9,0,0,1-.2.774.224.224,0,0,1-.088.056.227.227,0,0,1-.023.126c-.232.464-.516.562-.714.562a.634.634,0,0,1-.2-.034,2.706,2.706,0,0,0-.279-.066,1.778,1.778,0,0,1-.864-.34,3.66,3.66,0,0,1-.738.085,2.337,2.337,0,0,1-.5-.053l.1.089c.886.826,2.1,1.957,2.244,3.235a4.023,4.023,0,0,1-1.211,3.121A5.682,5.682,0,0,1,28.606,18.5a.427.427,0,0,1-.071.374.442.442,0,0,1-.355.169H21.17a.429.429,0,0,1-.352-.17.419.419,0,0,1-.058-.378A6.351,6.351,0,0,1,22.077,16.637Zm4.78-.082a.229.229,0,0,1,.019-.02,3.733,3.733,0,0,0,1.23-2.894c-.125-1.112-1.268-2.177-2.1-2.954a3.785,3.785,0,0,1-.885-.983.226.226,0,0,1,.336-.272,2.179,2.179,0,0,0,1.264.434,3.568,3.568,0,0,0,.773-.1.226.226,0,0,1,.238.1c.1.151.435.219.681.269a2.953,2.953,0,0,1,.332.08.182.182,0,0,0,.058.01c.069,0,.147-.06.223-.165l-.365-.328a.227.227,0,0,1,.222-.384l.483.158a.489.489,0,0,0,.015-.27c-.059-.274-.388-.836-1.937-1.522L27.421,7.7a.7.7,0,0,1-.284-.354,1.139,1.139,0,0,0-.455-.534,4.892,4.892,0,0,0-2.147-.659.23.23,0,0,1-.176-.123,1.267,1.267,0,0,0-1.17-.577q-.083,0-.169.007a1.1,1.1,0,0,1,.255.749.226.226,0,0,1-.08.149,3.537,3.537,0,0,0-1.213,2.061,8.09,8.09,0,0,0,.464,3.629c.105.368.213.748.3,1.115a1.681,1.681,0,0,1-.213,1.485,1.572,1.572,0,0,1-1.047.539,3.254,3.254,0,0,1,1.037,1.369h4.332Z" transform="translate(-20.696 -5)"/>
  <ellipse id="Ellipse_380" data-name="Ellipse 380" cx="0.287" cy="0.544" rx="0.287" ry="0.544" transform="matrix(0.281, -0.96, 0.96, 0.281, 4.565, 2.393)"/>
  <path id="Path_35241" data-name="Path 35241" d="M59.275,15.537c-2.34,2.7,1.586,5.364-.691,7.927C59.326,20.669,56.155,17.479,59.275,15.537Z" transform="translate(-55.98 -13.893)"/>
</svg>
