<svg xmlns="http://www.w3.org/2000/svg" width="200" height="200" viewBox="0 0 200 200">
  <g id="Inspection_Report" data-name="Inspection Report" transform="translate(-1086 1057)">
    <g id="Rectangle_4113" data-name="Rectangle 4113" transform="translate(1086 -1057)" fill="#fff" stroke="#707070" stroke-width="1" opacity="0">
      <rect width="200" height="200" stroke="none"/>
      <rect x="0.5" y="0.5" width="199" height="199" fill="none"/>
    </g>
    <g id="__TEMP__SVG__" transform="translate(1102.667 -1048.667)">
      <path id="Path_35276" data-name="Path 35276" d="M149.01,183.333H11.51a11.16,11.16,0,0,1-8.057-3.312,10.925,10.925,0,0,1-3.4-8.146V11.637a10.925,10.925,0,0,1,3.4-8.146A11.16,11.16,0,0,1,11.51.179H91.718V63.2a5.809,5.809,0,0,0,5.729,5.729h63.021V171.875a11.312,11.312,0,0,1-11.458,11.458Zm-17.188-34.375h-5.729v-40.1a5.809,5.809,0,0,0-5.729-5.729H108.905a5.809,5.809,0,0,0-5.729,5.729v40.1H91.718V85.937a5.809,5.809,0,0,0-5.729-5.729H74.53A5.809,5.809,0,0,0,68.8,85.937v63.021H57.343V120.312a5.809,5.809,0,0,0-5.729-5.729H40.155a5.809,5.809,0,0,0-5.729,5.729v28.646H28.7a5.729,5.729,0,0,0,0,11.458H131.822a5.423,5.423,0,0,0,4.118-1.7,5.66,5.66,0,0,0,1.611-4.028,5.809,5.809,0,0,0-5.729-5.729ZM103.176,0a10.716,10.716,0,0,1,7.878,3.223l46.012,46.012a11.217,11.217,0,0,1,3.4,8.236H103.176Z" transform="translate(-0.051)" fill="#166568"/>
    </g>
  </g>
</svg>
