<svg xmlns="http://www.w3.org/2000/svg" width="13.997" height="10.998" viewBox="0 0 13.997 10.998">
  <g id="mail" transform="translate(-1.6 -4)">
    <path id="Path_35242" data-name="Path 35242" d="M13.848,4H3.35A1.752,1.752,0,0,0,1.6,5.75v7.5A1.752,1.752,0,0,0,3.35,15h10.5a1.752,1.752,0,0,0,1.75-1.75V5.75A1.752,1.752,0,0,0,13.848,4ZM13.4,6.894l-4.5,3.5a.5.5,0,0,1-.614,0l-4.5-3.5A.5.5,0,1,1,4.406,6.1L8.6,9.365,12.791,6.1a.5.5,0,1,1,.614.789Z" transform="translate(0 0)" fill="#fff"/>
  </g>
</svg>
