<svg xmlns="http://www.w3.org/2000/svg" width="200" height="200" viewBox="0 0 200 200">
  <g id="MTRs" transform="translate(-1151 1053)">
    <g id="Rectangle_4115" data-name="Rectangle 4115" transform="translate(1151 -1053)" fill="#fff" stroke="#707070" stroke-width="1" opacity="0">
      <rect width="200" height="200" stroke="none"/>
      <rect x="0.5" y="0.5" width="199" height="199" fill="none"/>
    </g>
    <g id="noun-setting-3620129" transform="translate(1184.333 -1044.667)">
      <g id="Group_33873" data-name="Group 33873" transform="translate(0 0)">
        <circle id="Ellipse_385" data-name="Ellipse 385" cx="16.369" cy="16.369" r="16.369" transform="translate(55.655 94.94)" fill="#166568"/>
        <path id="Path_35285" data-name="Path 35285" d="M114.762,33.464V4H19.821A9.821,9.821,0,0,0,10,13.821v163.69a9.821,9.821,0,0,0,9.821,9.821h124.4a9.821,9.821,0,0,0,9.821-9.821V43.286H124.583A9.821,9.821,0,0,1,114.762,33.464ZM23.1,20.369V40.012a3.274,3.274,0,1,1-6.548,0V20.369a9.821,9.821,0,0,1,9.821-9.821H46.012a3.274,3.274,0,0,1,0,6.548H26.369A3.274,3.274,0,0,0,23.1,20.369ZM130.63,89.829l-9.111,9.111H134.4a3.274,3.274,0,0,1,3.274,3.274V128.4a3.274,3.274,0,0,1-3.274,3.274H121.519l9.111,9.111a3.274,3.274,0,0,1,0,4.629l-18.5,18.5a3.274,3.274,0,0,1-4.629,0L98.393,154.8V167.69a3.274,3.274,0,0,1-3.274,3.274H68.929a3.274,3.274,0,0,1-3.274-3.274V154.8l-9.111,9.111a3.274,3.274,0,0,1-4.629,0l-18.5-18.5a3.274,3.274,0,0,1,0-4.629l9.111-9.111H29.643a3.274,3.274,0,0,1-3.274-3.274v-26.19a3.274,3.274,0,0,1,3.274-3.274H42.529l-9.111-9.111a3.274,3.274,0,0,1,0-4.629l18.5-18.5a3.274,3.274,0,0,1,4.629,0l9.111,9.111V62.929a3.274,3.274,0,0,1,3.274-3.274h26.19a3.274,3.274,0,0,1,3.274,3.274V75.814L107.5,66.7a3.274,3.274,0,0,1,4.629,0l18.5,18.5a3.274,3.274,0,0,1,0,4.629Z" transform="translate(-10 -4)" fill="#166568"/>
        <path id="Path_35286" data-name="Path 35286" d="M85.38,38.966a3.274,3.274,0,0,1-3.778.612A24.9,24.9,0,0,0,78.191,38.2a3.274,3.274,0,0,1-2.262-3.117V23H56.286V35.08A3.274,3.274,0,0,1,54.024,38.2a24.9,24.9,0,0,0-3.411,1.382,3.274,3.274,0,0,1-3.778-.612l-8.512-8.512L24.445,44.312l8.512,8.512a3.274,3.274,0,0,1,.612,3.778,24.9,24.9,0,0,0-1.382,3.411,3.274,3.274,0,0,1-3.107,2.272H17V81.929H29.08A3.274,3.274,0,0,1,32.2,84.191,24.9,24.9,0,0,0,33.579,87.6a3.274,3.274,0,0,1-.612,3.778l-8.512,8.512L38.322,113.76l8.512-8.512a3.274,3.274,0,0,1,3.778-.612,24.9,24.9,0,0,0,3.411,1.382,3.274,3.274,0,0,1,2.262,3.117v12.08H75.929v-12.08a3.274,3.274,0,0,1,2.262-3.117,24.9,24.9,0,0,0,3.411-1.382,3.274,3.274,0,0,1,3.778.612l8.512,8.512L107.76,99.892,99.248,91.38a3.274,3.274,0,0,1-.612-3.778,24.9,24.9,0,0,0,1.382-3.411,3.274,3.274,0,0,1,3.117-2.262h12.08V62.286h-12.08a3.274,3.274,0,0,1-3.117-2.262,24.9,24.9,0,0,0-1.382-3.411,3.274,3.274,0,0,1,.612-3.778l8.512-8.512L93.9,30.445ZM66.107,95.024A22.917,22.917,0,1,1,89.024,72.107,22.917,22.917,0,0,1,66.107,95.024Z" transform="translate(5.917 39.202)" fill="#166568"/>
        <path id="Path_35287" data-name="Path 35287" d="M47.274,33.523H72.109L44,5.414V30.249A3.274,3.274,0,0,0,47.274,33.523Z" transform="translate(67.31 -0.785)" fill="#166568"/>
      </g>
    </g>
  </g>
</svg>
