<svg xmlns="http://www.w3.org/2000/svg" width="13.134" height="13.485" viewBox="0 0 13.134 13.485">
  <g id="settings" transform="translate(-1.6 -1.3)">
    <circle id="Ellipse_381" data-name="Ellipse 381" cx="1.407" cy="1.407" r="1.407" transform="translate(6.76 6.636)"/>
    <path id="Path_35250" data-name="Path 35250" d="M14.452,9.333l-.014-.011L13.513,8.6a.472.472,0,0,1-.179-.391V7.866a.469.469,0,0,1,.179-.388l.925-.726.014-.011a.782.782,0,0,0,.173-1L13.373,3.577l0-.006a.787.787,0,0,0-.951-.331l-.01,0L11.32,3.68a.467.467,0,0,1-.424-.038q-.144-.091-.293-.172a.467.467,0,0,1-.24-.347L10.2,1.964l0-.021A.8.8,0,0,0,9.42,1.3H6.913a.789.789,0,0,0-.775.656l0,.016L5.972,3.136a.469.469,0,0,1-.238.347q-.149.08-.293.171a.467.467,0,0,1-.423.037L3.929,3.25l-.01,0a.788.788,0,0,0-.952.332l0,.006L1.709,5.753a.783.783,0,0,0,.173,1l.014.011.925.726A.472.472,0,0,1,3,7.88v.339a.469.469,0,0,1-.179.388L1.9,9.333l-.014.011a.782.782,0,0,0-.173,1l1.252,2.166,0,.006a.787.787,0,0,0,.951.331l.01,0L5.013,12.4a.467.467,0,0,1,.424.038q.144.091.293.172a.467.467,0,0,1,.24.347l.163,1.161,0,.021a.8.8,0,0,0,.776.643H9.42a.789.789,0,0,0,.775-.656l0-.016.163-1.163a.469.469,0,0,1,.24-.347c.1-.054.2-.111.293-.171a.467.467,0,0,1,.423-.037l1.089.438.01,0a.787.787,0,0,0,.952-.332l0-.006,1.252-2.166a.783.783,0,0,0-.173-1Zm-3.942-1.18a2.351,2.351,0,1,1-.686-1.766,2.345,2.345,0,0,1,.686,1.766Z" transform="translate(0 0)"/>
  </g>
</svg>
