<svg xmlns="http://www.w3.org/2000/svg" width="200" height="200" viewBox="0 0 200 200">
  <g id="Yard_Inventory" data-name="Yard Inventory" transform="translate(-1054 1056)">
    <g id="Rectangle_4112" data-name="Rectangle 4112" transform="translate(1054 -1056)" fill="#fff" stroke="#707070" stroke-width="1" opacity="0">
      <rect width="200" height="200" stroke="none"/>
      <rect x="0.5" y="0.5" width="199" height="199" fill="none"/>
    </g>
    <g id="noun-warehouse-1076809" transform="translate(1062.333 -1039.333)">
      <g id="Group_33869" data-name="Group 33869" transform="translate(0 0)">
        <path id="Path_35277" data-name="Path 35277" d="M45.692,81.913H151.016V171.98h28.792V63.456h0L98.354,16.7,16.9,63.456V171.98H45.692Z" transform="translate(-6.687 -16.7)" fill="#166568"/>
        <rect id="Rectangle_4111" data-name="Rectangle 4111" width="183.333" height="7.629" transform="translate(0 156.51)" fill="#166568"/>
        <path id="Path_35278" data-name="Path 35278" d="M55.347,69.5H35.168A5.2,5.2,0,0,0,30,74.668V89.679a5.2,5.2,0,0,0,5.168,5.168H55.347a5.2,5.2,0,0,0,5.168-5.168V74.668C60.268,71.961,58.054,69.5,55.347,69.5Z" transform="translate(12.45 60.433)" fill="#166568"/>
        <path id="Path_35279" data-name="Path 35279" d="M69.047,69.5H48.868A5.2,5.2,0,0,0,43.7,74.668V89.679a5.2,5.2,0,0,0,5.168,5.168H69.047a5.2,5.2,0,0,0,5.168-5.168V74.668A5.2,5.2,0,0,0,69.047,69.5Z" transform="translate(32.463 60.433)" fill="#166568"/>
        <path id="Path_35280" data-name="Path 35280" d="M62.768,69.5A5.2,5.2,0,0,0,57.6,74.668V89.679a5.2,5.2,0,0,0,5.168,5.168H82.947a5.2,5.2,0,0,0,5.168-5.168V74.668A5.2,5.2,0,0,0,82.947,69.5Z" transform="translate(52.769 60.433)" fill="#166568"/>
        <path id="Path_35281" data-name="Path 35281" d="M60.415,62.968A5.2,5.2,0,0,0,55.247,57.8H35.068A5.2,5.2,0,0,0,29.9,62.968V77.979a5.2,5.2,0,0,0,5.168,5.168H55.247a5.2,5.2,0,0,0,5.168-5.168Z" transform="translate(12.304 43.341)" fill="#166568"/>
        <path id="Path_35282" data-name="Path 35282" d="M74.215,62.968A5.2,5.2,0,0,0,69.047,57.8H48.868A5.2,5.2,0,0,0,43.7,62.968V77.979a5.2,5.2,0,0,0,5.168,5.168H69.047a5.2,5.2,0,0,0,5.168-5.168Z" transform="translate(32.463 43.341)" fill="#166568"/>
      </g>
    </g>
  </g>
</svg>
